<svg xmlns="http://www.w3.org/2000/svg" viewBox="0 0 150.96 141.779">
  <style>
    .g{
      fill: #fff;
    }
  </style>
  <g class="g" data-name="Group 53">
    <text data-name="Food Hut"
      style="fill:#fff;font-size:38.206px;font-family:BebasNeueBold,Bebas Neue"
      transform="translate(75.48 107.963)">
      <tspan x="-71" y="0">Pizzarina</tspan>
    </text>
    <text style="fill:#fff;font-family:BebasNeueBold,Bebas Neue;font-size:18px"
      transform="translate(72.346 65.458)">
      <tspan x="-17.5" y="0">THE</tspan>
    </text>
    <path d="M2.515 72.41h145.929v3.316H2.515z" data-name="Rectangle 3" />
    <path d="M2.515 112.946h145.929v3.316H2.515z" data-name="Rectangle 4" />
    <g data-name="Group 48">
      <path
        d="M63.058 37.981s13.746 6.129 25.974 2.116c0 0-.429-6.782 2.292-9.652s8.918-8.164 4.99-14.968-10.129-3.327-11.945-2.116c0 0 0-11.127-12.4-11.127S60.781 14.419 60.781 14.419s-8.012-5.293-12.85 1.664.573 15.012 9.342 16.069a19 19 0 0 1 .968 9.088 52.4 52.4 0 0 0 14.483 3.779s-10.719.258-16.766-3.129c0 0 2.5-5.768.1-8.528 0 0-15.086-1.5-11.716-14.06 3.185-11.869 15.076-7.152 15.076-7.152S58.949.95 70.452.059c12.851-1 15.12 11.033 15.12 11.033s7.484-4.989 12.926 3.175.076 11.753-3.25 14.515c-4.082 3.387-5.593 8.919-4.233 14.815a45.54 45.54 0 0 1-27.957-5.616"
        data-name="Path 10897" />
      <path d="M61.558 26.523s14.536 9.658 27.909-1.154c0 0-11.788 15.142-27.909 1.154"
        data-name="Path 10898" />
      <path d="M56.131 28.892s7.287-1.186 8.33-8.386c0 0 2.13 8.983-8.33 8.386"
        data-name="Path 10899" />
      <path d="M82.227 14.689s-3.188-9.442-13-9.223c.004 0 8.615-3.985 13 9.223"
        data-name="Path 10900" />
    </g>
    <g data-name="Group 51">
      <g data-name="Group 49">
        <path
          d="M103.915 51.707 77.664 75.726h5.1l23.47-21.479L114 62.764a2.94 2.94 0 0 0 3.833.363l32.159-24.037a2.315 2.315 0 0 0 .335-3.474L126.533 9.523a2.322 2.322 0 0 0-3.493.009L97.779 37.547l-1.634 1.806a2.93 2.93 0 0 0 .012 3.847Zm37.61-17.48a1 1 0 0 1 .268.2l1.168 1.278a.888.888 0 0 1-.129 1.335l-23.925 17.746a1.134 1.134 0 0 1-1.476-.138l-.581-.641a.913.913 0 0 1 .114-1.351l23.374-18.348a1.08 1.08 0 0 1 1.187-.081m-6.106-5.945a1.03 1.03 0 0 1 .78.087l.045.025a1 1 0 0 1 .2.168l1.169 1.281a.95.95 0 0 1-.1 1.377L114.76 50.241a1.044 1.044 0 0 1-1.436-.1l-.582-.635a.983.983 0 0 1 .074-1.4l4.5-3.971-.241.207 17.942-15.859a.96.96 0 0 1 .402-.201m-5.566-5.71q.018-.015.033-.025c.015-.01.019-.009.03-.018a.95.95 0 0 1 1.043.043 1 1 0 0 1 .148.133l1.17 1.281a1.02 1.02 0 0 1-.054 1.42l-21.584 20.3a.98.98 0 0 1-1.4-.05l-.584-.639a1 1 0 0 1-.139-.2c0-.008-.008-.018-.011-.028a1.07 1.07 0 0 1-.068-.722c-.008.011-.014.028-.024.04a1 1 0 0 1 .281-.525l21.036-20.908a1 1 0 0 1 .123-.102m-25.548 17a1.1 1.1 0 0 1 .248-.523l7.853-8.764-.037.042 12.061-13.469a.88.88 0 0 1 1.337-.007l1.17 1.28a1.1 1.1 0 0 1-.017 1.463l-20.418 21.583a.92.92 0 0 1-1.36-.012l-.58-.64a1 1 0 0 1-.145-.206l-.013-.033a1.15 1.15 0 0 1-.077-.757.1.1 0 0 0-.022.04Z"
          data-name="Path 10901" />
        <path
          d="M28.879 115.894 15.93 127.377a2.6 2.6 0 0 0-.17 3.671l2.357 2.579.63.692a2.6 2.6 0 0 0 3.668.169l20.975-18.594Z"
          data-name="Path 10902" />
      </g>
      <g data-name="Group 50">
        <path
          d="m35.221 46.129-.407.417-2.064 2.117s-2.047 1.777-4.793-1.211S0 17.352 0 17.352l26.56 36.366a9 9 0 0 0 6.305 2.661h.006a9 9 0 0 0 .76-.036q.274-.025.552-.069c.061-.01.117-.017.178-.028q.273-.044.551-.113l.178-.04q.342-.085.694-.2l.046-.015q.378-.127.768-.288a3 3 0 0 0 .209-.1c.189-.086.374-.168.568-.265q.152-.072.294-.156c.169-.091.338-.181.511-.285.1-.063.21-.128.32-.2q.256-.16.52-.34l.318-.219q.282-.209.576-.433c.057-.046.111-.082.168-.128l23.31 22.254h4.893l-25.871-24.7c5.947-8.081-.231-13.328-.231-13.328L5.041 12.187s27.849 24.4 30.91 27.065 1.334 4.757 1.334 4.757Z"
          data-name="Path 10903" />
        <path
          d="M114.579 115.894h-13.59l20.018 19.387a2.56 2.56 0 0 0 3.609-.045l2.393-2.458.643-.658a2.56 2.56 0 0 0-.046-3.61Z"
          data-name="Path 10904" />
      </g>
    </g>
    <text data-name="EST 1957"
      style="fill:#fff;font-size:7.93px;font-family:Helvetica;letter-spacing:.03em"
      transform="translate(75.372 127.449)">
      <tspan x="-18.395" y="0">EST 2025</tspan>
    </text>
    <g data-name="Group 52">
      <path
        d="m48.236 133.287 1.055 3.244h3.41l-2.76 2 1.055 3.244-2.76-2-2.76 2 1.055-3.244-2.76-2h3.41Z"
        data-name="Path 10905" />
      <path
        d="m61.859 133.287 1.053 3.244h3.41l-2.758 2 1.053 3.244-2.758-2-2.76 2 1.053-3.244-2.759-2h3.411Z"
        data-name="Path 10906" />
      <path
        d="m75.479 133.287 1.055 3.244h3.41l-2.76 2 1.055 3.244-2.76-2-2.76 2 1.055-3.244-2.76-2h3.41Z"
        data-name="Path 10907" />
      <path
        d="m89.102 133.287 1.054 3.244h3.412l-2.76 2 1.054 3.244-2.76-2-2.759 2 1.055-3.244-2.762-2h3.411Z"
        data-name="Path 10908" />
      <path
        d="m102.724 133.287 1.055 3.244h3.41l-2.76 2 1.054 3.244-2.759-2-2.76 2 1.055-3.244-2.761-2h3.411Z"
        data-name="Path 10909" />
    </g>
  </g>
</svg>